<svg xmlns="http://www.w3.org/2000/svg" width="800" height="520" viewBox="0 0 800 520" role="img" aria-labelledby="title desc">
  <title id="title">Indigo Electrical Safety Guide</title>
  <desc id="desc">Branded illustration for Indigo Electrical safety advice.</desc>
  <defs>
    <linearGradient id="g" x1="120" x2="680" y1="70" y2="470" gradientUnits="userSpaceOnUse">
      <stop stop-color="#31238f"/>
      <stop offset="1" stop-color="#b460b5"/>
    </linearGradient>
    <radialGradient id="r" cx="0" cy="0" r="1" gradientTransform="matrix(260 0 0 260 650 92)" gradientUnits="userSpaceOnUse">
      <stop stop-color="#fff" stop-opacity=".42"/>
      <stop offset="1" stop-color="#fff" stop-opacity="0"/>
    </radialGradient>
  </defs>
  <rect width="800" height="520" rx="46" fill="url(#g)"/>
  <rect width="800" height="520" rx="46" fill="url(#r)"/>
  <path d="M80 420c118-76 230-94 336-54s204 39 304-4" fill="none" stroke="#fff" stroke-width="26" stroke-linecap="round" opacity=".15"/>
  <path d="M118 118h120M118 162h78" stroke="#fff" stroke-width="16" stroke-linecap="round" opacity=".45"/>
  <path d="M410 166h72l22 34v112l-58 58h-106l-58-58V200l22-34h72" fill="#fff" opacity=".9"/><path d="M340 218h106" stroke="#31238f" stroke-width="18" stroke-linecap="round"/><path d="M340 270h72" stroke="#b460b5" stroke-width="18" stroke-linecap="round"/><path d="M480 166l-16-44h-116l-16 44" stroke="#18b6d9" stroke-width="18" stroke-linejoin="round"/><path d="M326 374l-48 70m190-70 48 70" stroke="#fff" stroke-width="16" stroke-linecap="round" opacity=".62"/>
  <text x="56" y="454" fill="#fff" font-family="IBM Plex Sans, Arial, sans-serif" font-size="40" font-weight="700" letter-spacing="-1.8">Safety</text>
</svg>
