<svg xmlns="http://www.w3.org/2000/svg" viewBox="0 0 1100 360" role="img" aria-labelledby="title desc">
  <title id="title">Indigo Electrical modern logo concept</title>
  <desc id="desc">A clean modern logo with a purple bulb icon and bold Indigo Electrical wordmark.</desc>
  <defs>
    <linearGradient id="bulb" x1="0" x2="1" y1="0" y2="1">
      <stop offset="0" stop-color="#c46ad0"/>
      <stop offset="1" stop-color="#31238f"/>
    </linearGradient>
  </defs>
  <rect width="1100" height="360" rx="34" fill="#ffffff"/>
  <g transform="translate(74 45)">
    <circle cx="128" cy="128" r="124" fill="#f3efff"/>
    <path d="M128 42c-50 0-86 36-86 85 0 33 16 56 37 78 19 20 24 36 24 59h50c0-25 8-43 28-62 21-20 33-45 33-75 0-49-36-85-86-85z" fill="url(#bulb)" stroke="#101828" stroke-width="11" stroke-linejoin="round"/>
    <path d="M93 273h70M98 297h60M110 321h36" stroke="#101828" stroke-width="12" stroke-linecap="round"/>
    <path d="M128 2v-34M46 32 19 5M213 34l30-25M8 121h-38M248 121h42" stroke="#101828" stroke-width="12" stroke-linecap="round"/>
  </g>
  <g transform="translate(330 92)">
    <text x="0" y="76" font-family="'IBM Plex Sans', 'Segoe UI', sans-serif" font-size="84" font-weight="800" letter-spacing="-2" fill="#111827">Indigo</text>
    <text x="0" y="158" font-family="'IBM Plex Sans', 'Segoe UI', sans-serif" font-size="74" font-weight="500" letter-spacing="5" fill="#31238f">Electrical</text>
    <text x="2" y="210" font-family="'IBM Plex Sans', 'Segoe UI', sans-serif" font-size="26" font-weight="700" letter-spacing="2" fill="#667085">YOUR LOW-COST, LOCAL ELECTRICIAN</text>
  </g>
</svg>
